<?xml version="1.0" standalone="no"?>
<!DOCTYPE svg PUBLIC "-//W3C//DTD SVG 20010904//EN"
 "http://www.w3.org/TR/2001/REC-SVG-20010904/DTD/svg10.dtd">
<svg version="1.0" xmlns="http://www.w3.org/2000/svg"
 width="200.000000pt" height="200.000000pt" viewBox="0 0 200.000000 200.000000"
 preserveAspectRatio="xMidYMid meet">

<g transform="translate(0.000000,200.000000) scale(0.100000,-0.100000)"
fill="#000000" stroke="none">
<path d="M1017 1773 c-44 -160 -69 -411 -48 -476 10 -29 18 -37 36 -37 54 0
67 83 53 350 -6 107 -14 201 -18 208 -4 9 -13 -9 -23 -45z"/>
<path d="M980 1192 c-18 -15 -22 -25 -16 -46 8 -31 26 -41 61 -32 36 9 45 54
15 78 -12 10 -26 18 -30 18 -4 0 -18 -8 -30 -18z"/>
<path d="M1114 1156 c-11 -28 12 -63 59 -90 74 -44 432 -174 444 -162 8 8 -10
22 -132 104 -188 126 -354 192 -371 148z"/>
<path d="M755 1122 c-66 -26 -122 -55 -305 -156 -66 -36 -72 -41 -48 -44 63
-7 376 86 458 136 47 29 60 53 40 77 -18 22 -67 18 -145 -13z"/>
<path d="M979 1075 c-1 -8 -2 -18 -3 -22 -1 -5 -5 -165 -9 -358 -4 -192 -10
-378 -13 -412 l-6 -63 -34 0 c-24 0 -34 -5 -34 -15 0 -13 21 -15 130 -15 106
0 130 3 130 14 0 10 -13 16 -37 18 l-38 3 -7 300 c-4 165 -10 360 -14 433 l-6
132 -29 0 c-19 0 -29 -5 -30 -15z"/>
</g>
</svg>
