<?xml version="1.0" standalone="no"?>
<!DOCTYPE svg PUBLIC "-//W3C//DTD SVG 20010904//EN"
 "http://www.w3.org/TR/2001/REC-SVG-20010904/DTD/svg10.dtd">
<svg version="1.0" xmlns="http://www.w3.org/2000/svg"
 width="180.000000pt" height="212.000000pt" viewBox="0 0 180.000000 212.000000"
 preserveAspectRatio="xMidYMid meet">

<g transform="translate(0.000000,212.000000) scale(0.100000,-0.100000)"
fill="#000000" stroke="none">
<path d="M490 1807 c0 -13 150 -167 163 -167 21 0 -1 36 -64 104 -67 72 -99
92 -99 63z"/>
<path d="M900 1730 c0 -73 3 -90 15 -90 12 0 15 17 15 90 0 73 -3 90 -15 90
-12 0 -15 -17 -15 -90z"/>
<path d="M1223 1741 c-72 -77 -86 -101 -59 -101 17 0 168 165 159 174 -14 14
-31 1 -100 -73z"/>
<path d="M650 1606 c0 -17 -38 -60 -60 -69 -11 -4 -10 -7 8 -12 25 -8 30 -25
7 -25 -8 0 -15 -4 -15 -10 0 -5 7 -10 15 -10 23 0 18 -17 -7 -25 l-23 -8 23
-4 c12 -2 22 -8 22 -13 0 -4 -10 -11 -22 -14 l-23 -7 25 -10 25 -10 -24 -13
-23 -13 22 -6 c24 -6 19 -27 -8 -27 -12 -1 -10 -5 8 -15 l25 -15 -22 -6 c-13
-3 -20 -10 -17 -15 7 -12 161 -11 169 1 3 6 -1 10 -9 10 -21 0 -20 16 2 25 16
6 16 7 0 16 -10 6 -18 14 -18 19 0 6 8 10 18 10 16 1 16 1 0 14 -10 7 -18 16
-18 20 0 3 8 6 18 6 16 1 16 1 0 14 -22 16 -23 26 -3 26 8 0 15 5 15 10 0 6
-7 10 -15 10 -8 0 -15 5 -15 10 0 6 7 10 15 10 8 0 15 5 15 10 0 6 -7 10 -15
10 -20 0 -19 10 3 26 16 13 16 13 0 14 -10 0 -18 7 -18 15 0 9 -7 18 -15 21
-8 4 -15 15 -15 25 0 14 -7 19 -25 19 -15 0 -25 -6 -25 -14z"/>
<path d="M900 1600 c0 -12 -7 -20 -16 -20 -9 0 -18 -9 -21 -20 -3 -11 -13 -20
-22 -20 -14 -1 -14 -2 2 -14 21 -16 22 -26 2 -26 -8 0 -15 -4 -15 -10 0 -5 7
-10 15 -10 8 0 15 -4 15 -10 0 -5 -7 -10 -15 -10 -8 0 -15 -4 -15 -10 0 -5 7
-10 15 -10 20 0 19 -10 -2 -26 -17 -13 -17 -13 0 -14 22 0 22 -19 0 -27 -13
-5 -12 -8 8 -15 l24 -9 -24 -13 c-19 -11 -21 -14 -7 -19 20 -8 21 -27 0 -27
-8 0 -12 -4 -9 -10 8 -12 162 -13 169 -1 3 5 -4 12 -17 15 l-22 6 24 14 23 13
-22 6 c-24 6 -19 27 8 27 12 1 10 5 -8 15 l-25 14 25 9 25 10 -25 10 -25 10
25 10 24 9 -24 13 -24 13 24 9 25 10 -25 10 -25 10 25 10 c16 6 20 12 12 15
-22 8 -62 53 -62 68 0 8 -9 15 -20 15 -13 0 -20 -7 -20 -20z"/>
<path d="M1140 1601 c0 -10 -7 -21 -15 -25 -8 -3 -15 -12 -15 -21 0 -8 -8 -15
-17 -15 -17 -1 -17 -1 0 -14 21 -16 22 -26 2 -26 -8 0 -15 -4 -15 -10 0 -5 7
-10 15 -10 8 0 15 -4 15 -10 0 -5 -7 -10 -15 -10 -8 0 -15 -4 -15 -10 0 -5 7
-10 15 -10 20 0 19 -10 -2 -26 -17 -13 -17 -13 0 -14 22 0 22 -16 0 -24 -15
-6 -14 -8 2 -20 18 -13 18 -14 -1 -24 -18 -10 -18 -11 -1 -17 21 -9 22 -25 1
-25 -8 0 -12 -4 -9 -10 7 -12 145 -13 163 -1 10 6 8 10 -10 15 l-23 6 25 15
c18 10 20 14 8 15 -27 0 -31 19 -6 29 l23 8 -23 7 c-28 9 -28 23 1 29 l22 4
-22 8 c-26 8 -31 25 -8 25 8 0 15 5 15 10 0 6 -7 10 -15 10 -8 0 -15 5 -15 10
0 6 7 10 15 10 8 0 15 5 15 10 0 6 -7 10 -15 10 -23 0 -18 17 8 25 17 5 18 8
7 12 -22 9 -60 52 -60 69 0 8 -10 14 -25 14 -18 0 -25 -5 -25 -19z"/>
<path d="M475 1228 c-3 -7 -4 -213 -3 -458 l3 -445 445 0 445 0 0 455 0 455
-443 3 c-349 2 -444 0 -447 -10z m521 -263 c-3 -9 -24 -42 -46 -75 -22 -32
-40 -61 -40 -64 0 -3 31 -6 69 -8 l70 -3 -81 -108 c-44 -59 -83 -106 -85 -104
-2 3 5 37 16 76 l20 71 -65 0 c-35 0 -64 2 -64 4 0 2 14 35 31 73 17 37 39 87
50 111 l18 42 57 0 c46 0 55 -3 50 -15z"/>
</g>
</svg>
